<?xml version="1.0" encoding="UTF-8" standalone="no"?>
<svg
   xmlns:dc="http://purl.org/dc/elements/1.1/"
   xmlns:cc="http://creativecommons.org/ns#"
   xmlns:rdf="http://www.w3.org/1999/02/22-rdf-syntax-ns#"
   xmlns:svg="http://www.w3.org/2000/svg"
   xmlns="http://www.w3.org/2000/svg"
   xmlns:sodipodi="http://sodipodi.sourceforge.net/DTD/sodipodi-0.dtd"
   xmlns:inkscape="http://www.inkscape.org/namespaces/inkscape"
   viewBox="0.0 0.0 348.0 348.0"
   fill="none"
   version="1.1"
   id="svg26"
   sodipodi:docname="Perceptron.svg"
   inkscape:version="1.0.1 (3bc2e813f5, 2020-09-07)">
  <metadata
     id="metadata32">
    <rdf:RDF>
      <cc:Work
         rdf:about="">
        <dc:format>image/svg+xml</dc:format>
        <dc:type
           rdf:resource="http://purl.org/dc/dcmitype/StillImage" />
      </cc:Work>
    </rdf:RDF>
  </metadata>
  <defs
     id="defs30" />
  <sodipodi:namedview
     pagecolor="#ffffff"
     bordercolor="#666666"
     borderopacity="1"
     objecttolerance="10"
     gridtolerance="10"
     guidetolerance="10"
     inkscape:pageopacity="0"
     inkscape:pageshadow="2"
     inkscape:window-width="1858"
     inkscape:window-height="1057"
     id="namedview28"
     showgrid="false"
     inkscape:snap-bbox="true"
     inkscape:bbox-paths="true"
     inkscape:bbox-nodes="true"
     inkscape:snap-bbox-edge-midpoints="true"
     inkscape:snap-bbox-midpoints="true"
     inkscape:object-paths="true"
     inkscape:snap-intersection-paths="true"
     inkscape:snap-smooth-nodes="true"
     inkscape:snap-midpoints="true"
     inkscape:snap-object-midpoints="true"
     inkscape:snap-center="true"
     inkscape:snap-text-baseline="true"
     inkscape:snap-page="true"
     inkscape:zoom="1.8429478"
     inkscape:cx="124.69429"
     inkscape:cy="173.77384"
     inkscape:window-x="54"
     inkscape:window-y="-8"
     inkscape:window-maximized="1"
     inkscape:current-layer="svg26"
     inkscape:document-rotation="0" />
  <path
     d="M5.079 5.776h336.913v337.67H5.08z"
     stroke-width="2"
     stroke="#000"
     id="path22"
     style="fill:none;stroke:#000000;stroke-opacity:1;stroke-width:2;stroke-miterlimit:4;stroke-dasharray:none" />
  <path
     d="M282.734 40.554c0-8.376 6.966-15.165 15.56-15.165 4.126 0 8.084 1.597 11.001 4.441 2.918 2.844 4.558 6.702 4.558 10.724 0 8.376-6.966 15.165-15.56 15.165-8.593 0-15.559-6.79-15.559-15.165z"
     stroke-width="2"
     stroke="#000"
     id="path24"
     style="fill:none;stroke:#000000;stroke-opacity:1;stroke-width:2;stroke-miterlimit:4;stroke-dasharray:none" />
  <rect
     style="fill:none;stroke:#000000;stroke-width:2;stroke-linecap:round;stroke-linejoin:round;fill-opacity:1;stroke-opacity:1;stroke-miterlimit:4;stroke-dasharray:none"
     id="rect48"
     width="173.42447"
     height="69.062843"
     x="52.180817"
     y="34.915104"
     ry="0" />
  <rect
     style="fill:none;fill-opacity:1;stroke:#000000;stroke-width:2;stroke-linecap:round;stroke-linejoin:round;stroke-opacity:1;stroke-miterlimit:4;stroke-dasharray:none"
     id="rect873"
     width="16.549574"
     height="16.549574"
     x="80.306129"
     y="122.08701" />
  <rect
     style="fill:none;fill-opacity:1;stroke:#000000;stroke-width:2;stroke-linecap:round;stroke-linejoin:round;stroke-opacity:1;stroke-miterlimit:4;stroke-dasharray:none"
     id="rect873-0"
     width="16.549574"
     height="16.549574"
     x="122.90093"
     y="122.08701" />
  <rect
     style="fill:none;fill-opacity:1;stroke:#000000;stroke-width:2;stroke-linecap:round;stroke-linejoin:round;stroke-opacity:1;stroke-miterlimit:4;stroke-dasharray:none"
     id="rect873-0-0"
     width="16.549574"
     height="16.549574"
     x="165.49571"
     y="122.08701" />
  <rect
     style="fill:none;fill-opacity:1;stroke:#000000;stroke-width:2;stroke-linecap:round;stroke-linejoin:round;stroke-opacity:1;stroke-miterlimit:4;stroke-dasharray:none"
     id="rect873-0-7"
     width="16.549574"
     height="16.549574"
     x="208.09052"
     y="122.08701" />
  <rect
     style="fill:none;fill-opacity:1;stroke:#000000;stroke-width:2;stroke-linecap:round;stroke-linejoin:round;stroke-opacity:1;stroke-miterlimit:4;stroke-dasharray:none"
     id="rect873-0-0-1"
     width="16.549574"
     height="16.549574"
     x="250.6853"
     y="122.08701" />
  <rect
     style="fill:none;fill-opacity:1;stroke:#000000;stroke-width:2;stroke-linecap:round;stroke-linejoin:round;stroke-opacity:1;stroke-miterlimit:4;stroke-dasharray:none"
     id="rect873-0-0-2"
     width="16.549574"
     height="16.549574"
     x="144.1983"
     y="283.33478" />
  <rect
     style="fill:none;fill-opacity:1;stroke:#000000;stroke-width:2;stroke-linecap:round;stroke-linejoin:round;stroke-opacity:1;stroke-miterlimit:4;stroke-dasharray:none"
     id="rect873-0-7-4"
     width="16.549574"
     height="16.549574"
     x="186.79311"
     y="283.33478" />
  <rect
     style="fill:none;fill-opacity:1;stroke:#000000;stroke-width:2;stroke-linecap:round;stroke-linejoin:round;stroke-opacity:1;stroke-miterlimit:4;stroke-dasharray:none"
     id="rect873-0-7-4-7"
     width="16.549574"
     height="16.549574"
     x="229.38791"
     y="283.33478" />
  <rect
     style="fill:none;fill-opacity:1;stroke:#000000;stroke-width:2;stroke-linecap:round;stroke-linejoin:round;stroke-opacity:1;stroke-miterlimit:4;stroke-dasharray:none"
     id="rect873-0-0-2-2"
     width="16.549574"
     height="16.549574"
     x="101.6035"
     y="283.33478" />
  <rect
     style="fill:none;fill-opacity:1;stroke:#000000;stroke-width:2;stroke-linecap:round;stroke-linejoin:round;stroke-opacity:1;stroke-miterlimit:4;stroke-dasharray:none"
     id="rect1009"
     width="260.13672"
     height="120.4763"
     x="43.702137"
     y="148.0112" />
  <ellipse
     style="fill:none;fill-opacity:1;stroke:#000000;stroke-width:2;stroke-linecap:round;stroke-linejoin:round;stroke-opacity:1;stroke-miterlimit:4;stroke-dasharray:none"
     id="path853"
     cx="152.47308"
     cy="208.24934"
     rx="8.2747889"
     ry="8.2747869" />
  <path
     style="fill:none;stroke:#000000;stroke-width:2;stroke-linecap:butt;stroke-linejoin:miter;stroke-opacity:1;stroke-miterlimit:4;stroke-dasharray:none"
     d="M 67.283508,208.24934 109.8783,195.20413"
     id="path1143" />
  <path
     style="fill:none;stroke:#000000;stroke-width:2;stroke-linecap:butt;stroke-linejoin:miter;stroke-opacity:1;stroke-miterlimit:4;stroke-dasharray:none"
     d="M 109.8783,221.29454 67.283508,208.24934"
     id="path1145" />
  <path
     style="fill:none;stroke:#000000;stroke-width:2;stroke-linecap:butt;stroke-linejoin:miter;stroke-opacity:1;stroke-miterlimit:4;stroke-dasharray:none"
     d="m 109.8783,195.20413 42.59478,-13.04519"
     id="path1147" />
  <path
     style="fill:none;stroke:#000000;stroke-width:2;stroke-linecap:butt;stroke-linejoin:miter;stroke-opacity:1;stroke-miterlimit:4;stroke-dasharray:none"
     d="M 152.47308,208.24934 109.8783,195.20413"
     id="path1149" />
  <path
     style="fill:none;stroke:#000000;stroke-width:2;stroke-linecap:butt;stroke-linejoin:miter;stroke-opacity:1;stroke-miterlimit:4;stroke-dasharray:none"
     d="M 152.47308,234.33975 109.8783,195.20413"
     id="path1151" />
  <path
     style="fill:none;stroke:#000000;stroke-width:2;stroke-linecap:butt;stroke-linejoin:miter;stroke-opacity:1;stroke-miterlimit:4;stroke-dasharray:none"
     d="m 109.8783,221.29454 42.59478,-39.1356"
     id="path1153" />
  <path
     style="fill:none;stroke:#000000;stroke-width:2;stroke-linecap:butt;stroke-linejoin:miter;stroke-opacity:1;stroke-miterlimit:4;stroke-dasharray:none"
     d="m 152.47308,208.24934 -42.59478,13.0452"
     id="path1155" />
  <path
     style="fill:none;stroke:#000000;stroke-width:2;stroke-linecap:butt;stroke-linejoin:miter;stroke-opacity:1;stroke-miterlimit:4;stroke-dasharray:none"
     d="M 152.47308,234.33975 109.8783,221.29454"
     id="path1157" />
  <path
     style="fill:none;stroke:#000000;stroke-width:2;stroke-linecap:butt;stroke-linejoin:miter;stroke-opacity:1;stroke-miterlimit:4;stroke-dasharray:none"
     d="m 152.47308,182.15894 42.59478,13.04521"
     id="path1159" />
  <path
     style="fill:none;stroke:#000000;stroke-width:2;stroke-linecap:butt;stroke-linejoin:miter;stroke-opacity:1;stroke-miterlimit:4;stroke-dasharray:none"
     d="m 152.47308,208.24934 42.59478,-13.04519"
     id="path1161" />
  <path
     style="fill:none;stroke:#000000;stroke-width:2;stroke-linecap:butt;stroke-linejoin:miter;stroke-opacity:1;stroke-miterlimit:4;stroke-dasharray:none"
     d="m 152.47308,234.33975 42.59478,-39.1356"
     id="path1163" />
  <path
     style="fill:none;stroke:#000000;stroke-width:2;stroke-linecap:butt;stroke-linejoin:miter;stroke-opacity:1;stroke-miterlimit:4;stroke-dasharray:none"
     d="m 152.47308,182.15894 42.59478,39.13562"
     id="path1165" />
  <path
     style="fill:none;stroke:#000000;stroke-width:2;stroke-linecap:butt;stroke-linejoin:miter;stroke-opacity:1;stroke-miterlimit:4;stroke-dasharray:none"
     d="m 152.47308,208.24934 42.59478,13.04522"
     id="path1167" />
  <path
     style="fill:none;stroke:#000000;stroke-width:2;stroke-linecap:butt;stroke-linejoin:miter;stroke-opacity:1;stroke-miterlimit:4;stroke-dasharray:none"
     d="m 152.47308,234.33975 42.59478,-13.04519"
     id="path1169" />
  <path
     style="fill:none;stroke:#000000;stroke-width:2;stroke-linecap:butt;stroke-linejoin:miter;stroke-opacity:1;stroke-miterlimit:4;stroke-dasharray:none"
     d="m 195.06786,195.20415 42.5948,-26.09041"
     id="path1171" />
  <path
     style="fill:none;stroke:#000000;stroke-width:2;stroke-linecap:butt;stroke-linejoin:miter;stroke-opacity:1;stroke-miterlimit:4;stroke-dasharray:none"
     d="m 195.06786,195.20415 h 42.5948"
     id="path1173" />
  <path
     style="fill:none;stroke:#000000;stroke-width:2;stroke-linecap:butt;stroke-linejoin:miter;stroke-opacity:1;stroke-miterlimit:4;stroke-dasharray:none"
     d="m 237.66266,221.29456 -42.5948,-26.09041 42.5948,52.18081"
     id="path1175" />
  <path
     style="fill:none;stroke:#000000;stroke-width:2;stroke-linecap:butt;stroke-linejoin:miter;stroke-opacity:1;stroke-miterlimit:4;stroke-dasharray:none"
     d="m 237.66266,169.11374 -42.5948,52.18082 42.5948,-26.09041"
     id="path1177" />
  <path
     style="fill:none;stroke:#000000;stroke-width:2;stroke-linecap:butt;stroke-linejoin:miter;stroke-opacity:1;stroke-miterlimit:4;stroke-dasharray:none"
     d="m 195.06786,221.29456 h 42.5948"
     id="path1179" />
  <path
     style="fill:none;stroke:#000000;stroke-width:2;stroke-linecap:butt;stroke-linejoin:miter;stroke-opacity:1;stroke-miterlimit:4;stroke-dasharray:none"
     d="m 195.06786,221.29456 42.5948,26.0904"
     id="path1181" />
  <path
     style="fill:none;stroke:#000000;stroke-width:2;stroke-linecap:butt;stroke-linejoin:miter;stroke-opacity:1;stroke-miterlimit:4;stroke-dasharray:none"
     d="m 237.66266,169.11374 42.59479,26.09041"
     id="path1183" />
  <path
     style="fill:none;stroke:#000000;stroke-width:2;stroke-linecap:butt;stroke-linejoin:miter;stroke-opacity:1;stroke-miterlimit:4;stroke-dasharray:none"
     d="m 237.66266,169.11374 42.59479,52.18082"
     id="path1185" />
  <path
     style="fill:none;stroke:#000000;stroke-width:2;stroke-linecap:butt;stroke-linejoin:miter;stroke-opacity:1;stroke-miterlimit:4;stroke-dasharray:none"
     d="m 280.25745,195.20415 h -42.59479 l 42.59479,26.09041"
     id="path1187" />
  <path
     style="fill:none;stroke:#000000;stroke-width:2;stroke-linecap:butt;stroke-linejoin:miter;stroke-opacity:1;stroke-miterlimit:4;stroke-dasharray:none"
     d="m 280.25745,195.20415 -42.59479,26.09041 h 42.59479"
     id="path1189" />
  <path
     style="fill:none;stroke:#000000;stroke-width:2;stroke-linecap:butt;stroke-linejoin:miter;stroke-opacity:1;stroke-miterlimit:4;stroke-dasharray:none"
     d="m 280.25745,195.20415 -42.59479,52.18081 42.59479,-26.0904"
     id="path1191" />
  <g
     aria-label="    -/123  
    -/1.234"
     id="text1201"
     style="font-style:normal;font-variant:normal;font-weight:bold;font-stretch:normal;font-size:23.0855px;line-height:1.25;font-family:Consolas;-inkscape-font-specification:'Consolas, Bold';font-variant-ligatures:normal;font-variant-caps:normal;font-variant-numeric:normal;font-variant-east-asian:normal;fill:#000000;fill-opacity:1;stroke-width:0.577137">
    <path
       d="m 122.93737,56.855478 v -2.446071 h 7.01132 v 2.446071 z"
       style="fill:#000000;fill-opacity:1;stroke-width:0.577137"
       id="path1221" />
    <path
       d="m 136.2724,64.193691 h -2.67151 l 7.868,-18.351169 h 2.68279 z"
       style="fill:#000000;fill-opacity:1;stroke-width:0.577137"
       id="path1223" />
    <path
       d="m 147.19518,61.770164 v -2.446071 h 3.75365 v -9.468662 l -3.26894,1.803555 -0.90178,-2.243172 4.67797,-2.468615 h 2.3108 v 12.376894 h 3.23513 v 2.446071 z"
       style="fill:#000000;fill-opacity:1;stroke-width:0.577137"
       id="path1225" />
    <path
       d="m 159.62843,61.770164 v -2.028999 l 3.48312,-3.483115 q 0.98068,-0.980683 1.56684,-1.690832 0.59742,-0.71015 0.91305,-1.262489 0.32689,-0.56361 0.42834,-1.037044 0.10145,-0.473433 0.10145,-0.980682 0,-0.417072 -0.13527,-0.789056 -0.13526,-0.383255 -0.39452,-0.653788 -0.25927,-0.281806 -0.65379,-0.439617 -0.39453,-0.169083 -0.90178,-0.169083 -0.86796,0 -1.61193,0.383255 -0.74396,0.371984 -1.40902,1.003228 l -1.45412,-1.871188 q 0.95814,-0.890505 2.15299,-1.4203 1.20613,-0.541066 2.60388,-0.541066 1.08214,0 1.96137,0.281805 0.87923,0.270534 1.49921,0.8116 0.63124,0.541066 0.96941,1.352666 0.34943,0.8116 0.34943,1.871188 0,0.879233 -0.23671,1.645744 -0.23672,0.755238 -0.68761,1.47666 -0.45089,0.721422 -1.11595,1.442844 -0.65379,0.721422 -1.4992,1.521749 l -2.14172,2.040272 h 6.21099 v 2.536248 z"
       style="fill:#000000;fill-opacity:1;stroke-width:0.577137"
       id="path1227" />
    <path
       d="m 182.3645,57.27255 q 0,1.093405 -0.4058,1.972638 -0.4058,0.867961 -1.25122,1.487933 -0.83414,0.608699 -2.1079,0.935594 -1.27376,0.326894 -2.99841,0.326894 -0.38326,0 -0.8116,-0.02255 -0.41707,-0.01127 -0.83415,-0.04509 -0.41707,-0.02255 -0.8116,-0.06763 -0.39452,-0.03382 -0.71015,-0.09018 v -2.38971 q 0.71015,0.135267 1.58939,0.225445 0.8905,0.0789 1.84864,0.0789 0.93559,0 1.61193,-0.157811 0.67633,-0.157811 1.11595,-0.450888 0.43961,-0.30435 0.64251,-0.743967 0.21418,-0.439616 0.21418,-0.991955 0,-0.484705 -0.21418,-0.879233 -0.21417,-0.394527 -0.65378,-0.665061 -0.43962,-0.281805 -1.12723,-0.428344 -0.67633,-0.157811 -1.61192,-0.157811 h -1.63447 v -2.096632 h 1.4992 q 0.87923,0 1.45412,-0.169084 0.58615,-0.180355 0.92432,-0.473433 0.34944,-0.293077 0.49598,-0.687605 0.14653,-0.4058 0.14653,-0.845416 0,-0.901778 -0.58615,-1.363938 -0.58616,-0.473434 -1.81483,-0.473434 -0.87923,0 -1.73592,0.169084 -0.85669,0.169083 -1.76974,0.450888 V 47.40936 q 0.50725,-0.169083 0.96941,-0.281806 0.46216,-0.112722 0.92432,-0.191627 0.46217,-0.07891 0.9356,-0.112722 0.47343,-0.03382 0.98068,-0.03382 1.2174,0 2.13045,0.259261 0.92432,0.259261 1.54429,0.743966 0.63125,0.473433 0.94687,1.161039 0.31562,0.687605 0.31562,1.533021 0,1.341394 -0.61997,2.175538 -0.6087,0.822872 -1.71338,1.262488 0.71015,0.112723 1.28504,0.394528 0.57488,0.270533 0.98068,0.71015 0.41707,0.428344 0.63124,0.991955 0.22545,0.563611 0.22545,1.251216 z"
       style="fill:#000000;fill-opacity:1;stroke-width:0.577137"
       id="path1229" />
    <path
       d="m 122.93737,85.712354 v -2.446071 h 7.01132 v 2.446071 z"
       style="fill:#000000;fill-opacity:1;stroke-width:0.577137"
       id="path1231" />
    <path
       d="m 136.2724,93.050567 h -2.67151 l 7.868,-18.351169 h 2.68279 z"
       style="fill:#000000;fill-opacity:1;stroke-width:0.577137"
       id="path1233" />
    <path
       d="m 147.19518,90.62704 v -2.446071 h 3.75365 v -9.468662 l -3.26894,1.803555 -0.90178,-2.243172 4.67797,-2.468615 h 2.3108 v 12.376894 h 3.23513 v 2.446071 z"
       style="fill:#000000;fill-opacity:1;stroke-width:0.577137"
       id="path1235" />
    <path
       d="m 164.45294,86.467592 q 0.47343,0 0.87923,0.180356 0.4058,0.169083 0.69888,0.473433 0.30435,0.293077 0.47343,0.698877 0.16909,0.4058 0.16909,0.867961 0,0.450889 -0.16909,0.856689 -0.16908,0.394527 -0.47343,0.698877 -0.29308,0.293078 -0.69888,0.462161 -0.4058,0.180355 -0.87923,0.180355 -0.45089,0 -0.84541,-0.180355 -0.39453,-0.169083 -0.68761,-0.462161 -0.29308,-0.30435 -0.46216,-0.698877 -0.16908,-0.4058 -0.16908,-0.856689 0,-0.462161 0.16908,-0.867961 0.16908,-0.4058 0.46216,-0.698877 0.29308,-0.30435 0.68761,-0.473433 0.39452,-0.180356 0.84541,-0.180356 z"
       style="fill:#000000;fill-opacity:1;stroke-width:0.577137"
       id="path1237" />
    <path
       d="m 172.32095,90.62704 v -2.028999 l 3.48312,-3.483115 q 0.98068,-0.980683 1.56684,-1.690832 0.59742,-0.71015 0.91305,-1.262489 0.32689,-0.563611 0.42834,-1.037044 0.10145,-0.473433 0.10145,-0.980683 0,-0.417072 -0.13527,-0.789055 -0.13526,-0.383255 -0.39452,-0.653788 -0.25927,-0.281806 -0.65379,-0.439617 -0.39453,-0.169083 -0.90178,-0.169083 -0.86796,0 -1.61193,0.383255 -0.74396,0.371983 -1.40902,1.003228 l -1.45412,-1.871188 q 0.95814,-0.890506 2.15299,-1.4203 1.20613,-0.541066 2.60388,-0.541066 1.08214,0 1.96137,0.281805 0.87923,0.270533 1.49921,0.8116 0.63124,0.541066 0.96941,1.352666 0.34943,0.8116 0.34943,1.871188 0,0.879233 -0.23671,1.645744 -0.23672,0.755238 -0.68761,1.47666 -0.45089,0.721422 -1.11595,1.442844 -0.65378,0.721422 -1.4992,1.521749 l -2.14172,2.040272 h 6.21099 v 2.536248 z"
       style="fill:#000000;fill-opacity:1;stroke-width:0.577137"
       id="path1239" />
    <path
       d="m 195.05702,86.129426 q 0,1.093405 -0.4058,1.972638 -0.4058,0.86796 -1.25122,1.487932 -0.83414,0.6087 -2.1079,0.935594 -1.27376,0.326895 -2.99841,0.326895 -0.38326,0 -0.8116,-0.02255 -0.41707,-0.01127 -0.83415,-0.04509 -0.41707,-0.02254 -0.8116,-0.06763 -0.39452,-0.03382 -0.71015,-0.09018 v -2.38971 q 0.71015,0.135267 1.58939,0.225445 0.8905,0.07891 1.84864,0.07891 0.9356,0 1.61193,-0.157811 0.67633,-0.157811 1.11595,-0.450889 0.43961,-0.304349 0.64251,-0.743966 0.21418,-0.439616 0.21418,-0.991955 0,-0.484705 -0.21418,-0.879233 -0.21417,-0.394527 -0.65378,-0.665061 -0.43962,-0.281805 -1.12723,-0.428344 -0.67633,-0.157811 -1.61192,-0.157811 h -1.63447 v -2.096632 h 1.4992 q 0.87923,0 1.45412,-0.169084 0.58615,-0.180355 0.92432,-0.473433 0.34944,-0.293077 0.49598,-0.687605 0.14653,-0.4058 0.14653,-0.845416 0,-0.901778 -0.58615,-1.363939 -0.58616,-0.473433 -1.81483,-0.473433 -0.87923,0 -1.73592,0.169084 -0.85669,0.169083 -1.76974,0.450888 v -2.310804 q 0.50725,-0.169084 0.96941,-0.281806 0.46216,-0.112722 0.92432,-0.191627 0.46217,-0.07891 0.9356,-0.112723 0.47343,-0.03382 0.98068,-0.03382 1.2174,0 2.13045,0.259261 0.92432,0.259261 1.54429,0.743966 0.63125,0.473433 0.94687,1.161038 0.31562,0.687606 0.31562,1.533022 0,1.341394 -0.61997,2.175538 -0.6087,0.822872 -1.71338,1.262488 0.71015,0.112722 1.28504,0.394528 0.57488,0.270533 0.98068,0.71015 0.41707,0.428344 0.63124,0.991955 0.22545,0.56361 0.22545,1.251216 z"
       style="fill:#000000;fill-opacity:1;stroke-width:0.577137"
       id="path1241" />
    <path
       d="m 206.22778,87.628631 v 2.998409 h -2.68279 v -2.998409 h -6.8535 v -2.355894 l 5.74883,-9.378484 h 3.78746 v 9.310851 h 2.2319 v 2.423527 z m -2.64897,-9.074135 -4.19326,6.650608 h 4.19326 z"
       style="fill:#000000;fill-opacity:1;stroke-width:0.577137"
       id="path1243" />
  </g>
  <ellipse
     style="fill:#ffffff;fill-opacity:1;stroke:#000000;stroke-width:2;stroke-linecap:round;stroke-linejoin:round;stroke-opacity:1;stroke-miterlimit:4;stroke-dasharray:none"
     id="path853-6"
     cx="152.47308"
     cy="234.33975"
     rx="8.2747889"
     ry="8.2747869" />
  <ellipse
     style="fill:#ffffff;fill-opacity:1;stroke:#000000;stroke-width:2;stroke-linecap:round;stroke-linejoin:round;stroke-opacity:1;stroke-miterlimit:4;stroke-dasharray:none"
     id="path853-1"
     cx="152.47308"
     cy="182.15894"
     rx="8.2747889"
     ry="8.2747869" />
  <ellipse
     style="fill:#ffffff;fill-opacity:1;stroke:#000000;stroke-width:2;stroke-linecap:round;stroke-linejoin:round;stroke-opacity:1;stroke-miterlimit:4;stroke-dasharray:none"
     id="path853-5-4"
     cx="152.47308"
     cy="208.24934"
     rx="8.2747889"
     ry="8.2747869" />
  <ellipse
     style="fill:#ffffff;fill-opacity:1;stroke:#000000;stroke-width:2;stroke-linecap:round;stroke-linejoin:round;stroke-opacity:1;stroke-miterlimit:4;stroke-dasharray:none"
     id="path853-57-5"
     cx="67.283508"
     cy="208.24934"
     rx="8.2747889"
     ry="8.2747869" />
  <ellipse
     style="fill:#ffffff;fill-opacity:1;stroke:#000000;stroke-width:2;stroke-linecap:round;stroke-linejoin:round;stroke-opacity:1;stroke-miterlimit:4;stroke-dasharray:none"
     id="path853-6-4"
     cx="109.8783"
     cy="221.29454"
     rx="8.2747889"
     ry="8.2747869" />
  <ellipse
     style="fill:#ffffff;fill-opacity:1;stroke:#000000;stroke-width:2;stroke-linecap:round;stroke-linejoin:round;stroke-opacity:1;stroke-miterlimit:4;stroke-dasharray:none"
     id="path853-5-4-8"
     cx="109.8783"
     cy="195.20413"
     rx="8.2747889"
     ry="8.2747869" />
  <ellipse
     style="fill:#ffffff;fill-opacity:1;stroke:#000000;stroke-width:2;stroke-linecap:round;stroke-linejoin:round;stroke-opacity:1;stroke-miterlimit:4;stroke-dasharray:none"
     id="path853-5-4-88"
     cx="195.06786"
     cy="195.20415"
     rx="8.2747889"
     ry="8.2747869" />
  <ellipse
     style="fill:#ffffff;fill-opacity:1;stroke:#000000;stroke-width:2;stroke-linecap:round;stroke-linejoin:round;stroke-opacity:1;stroke-miterlimit:4;stroke-dasharray:none"
     id="path853-6-4-6"
     cx="195.06786"
     cy="221.29456"
     rx="8.2747889"
     ry="8.2747869" />
  <ellipse
     style="fill:#ffffff;fill-opacity:1;stroke:#000000;stroke-width:2;stroke-linecap:round;stroke-linejoin:round;stroke-opacity:1;stroke-miterlimit:4;stroke-dasharray:none"
     id="path853-6-4-6-1"
     cx="237.66266"
     cy="221.29456"
     rx="8.2747889"
     ry="8.2747869" />
  <ellipse
     style="fill:#ffffff;fill-opacity:1;stroke:#000000;stroke-width:2;stroke-linecap:round;stroke-linejoin:round;stroke-opacity:1;stroke-miterlimit:4;stroke-dasharray:none"
     id="path853-5-4-88-8"
     cx="237.66266"
     cy="195.20415"
     rx="8.2747889"
     ry="8.2747869" />
  <ellipse
     style="fill:#ffffff;fill-opacity:1;stroke:#000000;stroke-width:2;stroke-linecap:round;stroke-linejoin:round;stroke-opacity:1;stroke-miterlimit:4;stroke-dasharray:none"
     id="path853-5-4-88-81"
     cx="237.66266"
     cy="169.11374"
     rx="8.2747889"
     ry="8.2747869" />
  <ellipse
     style="fill:#ffffff;fill-opacity:1;stroke:#000000;stroke-width:2;stroke-linecap:round;stroke-linejoin:round;stroke-opacity:1;stroke-miterlimit:4;stroke-dasharray:none"
     id="path853-6-4-6-6"
     cx="237.66266"
     cy="247.38496"
     rx="8.2747889"
     ry="8.2747869" />
  <ellipse
     style="fill:#ffffff;fill-opacity:1;stroke:#000000;stroke-width:2;stroke-linecap:round;stroke-linejoin:round;stroke-opacity:1;stroke-miterlimit:4;stroke-dasharray:none"
     id="path853-6-4-6-1-7"
     cx="280.25745"
     cy="221.29456"
     rx="8.2747889"
     ry="8.2747869" />
  <ellipse
     style="fill:#ffffff;fill-opacity:1;stroke:#000000;stroke-width:2;stroke-linecap:round;stroke-linejoin:round;stroke-opacity:1;stroke-miterlimit:4;stroke-dasharray:none"
     id="path853-5-4-88-8-8"
     cx="280.25745"
     cy="195.20415"
     rx="8.2747889"
     ry="8.2747869" />
</svg>
